<?xml version="1.0" encoding="UTF-8" standalone="no"?>
<svg
   version="1.0"
   width="174.000000pt"
   height="158.000000pt"
   viewBox="0 0 174.000000 158.000000"
   preserveAspectRatio="xMidYMid meet"
   id="svg14"
   sodipodi:docname="mosaico.svg"
   inkscape:version="1.1.2 (b8e25be833, 2022-02-05)"
   xmlns:inkscape="http://www.inkscape.org/namespaces/inkscape"
   xmlns:sodipodi="http://sodipodi.sourceforge.net/DTD/sodipodi-0.dtd"
   xmlns="http://www.w3.org/2000/svg"
   xmlns:svg="http://www.w3.org/2000/svg">
  <defs
     id="defs18" />
  <sodipodi:namedview
     id="namedview16"
     pagecolor="#ffffff"
     bordercolor="#999999"
     borderopacity="1"
     inkscape:pageshadow="0"
     inkscape:pageopacity="0"
     inkscape:pagecheckerboard="0"
     inkscape:document-units="pt"
     showgrid="false"
     inkscape:zoom="3.9066456"
     inkscape:cx="102.13366"
     inkscape:cy="94.966383"
     inkscape:window-width="1920"
     inkscape:window-height="1009"
     inkscape:window-x="-8"
     inkscape:window-y="-8"
     inkscape:window-maximized="1"
     inkscape:current-layer="g12" />
  <metadata
     id="metadata2">
Created by potrace 1.16, written by Peter Selinger 2001-2019
</metadata>
  <g
     transform="translate(0.000000,158.000000) scale(0.100000,-0.100000)"
     fill="#000000"
     stroke="none"
     id="g12">
    <path
       d="M723 1375 c-20 -14 -22 -24 -21 -118 0 -121 15 -170 50 -165 37 5 58 62 61 166 2 76 -1 93 -17 111 -23 25 -44 27 -73 6z"
       id="path4" />
    <path
       d="M1026 1368 c-8 -13 -18 -45 -22 -73 -4 -27 -13 -64 -20 -82 -17 -39 -18 -89 -3 -98 22 -14 57 6 76 42 10 21 31 60 47 86 30 50 32 101 5 133 -18 22 -66 17 -83 -8z"
       id="path6" />
    <path
       d="M1166 1238 c-8 -13 -18 -39 -21 -60 -6 -29 -3 -40 13 -56 17 -17 18 -21 6 -26 -19 -7 -44 -67 -44 -105 0 -21 -6 -32 -20 -36 -14 -4 -25 -24 -36 -63 -21 -73 -28 -80 -50 -48 -16 25 -16 31 0 86 20 73 20 104 1 120 -28 23 -49 7 -73 -55 -40 -105 -40 -105 -67 -105 -53 0 -65 15 -65 83 0 76 -19 110 -58 105 -43 -5 -52 -37 -49 -184 2 -102 6 -136 19 -156 28 -42 136 -108 187 -114 60 -7 100 -23 110 -43 7 -12 -8 -34 -60 -91 l-69 -75 -20 23 c-19 24 -32 62 -44 133 -9 52 -46 103 -78 107 -14 2 -41 -6 -59 -17 -19 -12 -42 -21 -51 -21 -9 0 -46 -26 -82 -58 -47 -41 -68 -66 -72 -89 -9 -49 27 -115 87 -159 27 -20 63 -56 80 -81 52 -75 74 -83 224 -83 182 0 193 8 304 222 34 65 61 129 61 144 0 14 9 39 20 54 11 16 30 50 43 77 12 28 42 68 65 90 29 27 42 48 42 67 0 14 14 45 30 68 35 48 39 92 10 108 -42 22 -110 -46 -110 -110 0 -12 -11 -35 -25 -52 -14 -16 -25 -38 -25 -49 0 -10 -5 -19 -10 -19 -6 0 -29 -25 -53 -55 -23 -30 -50 -55 -59 -55 -50 0 -77 88 -42 138 17 25 46 116 42 135 -1 6 6 24 15 39 13 18 17 41 15 75 -3 41 1 51 22 69 21 18 24 31 25 80 l0 59 -32 3 c-24 2 -35 -2 -47 -20z m-380 -269 c-4 -26 -3 -54 0 -63 9 -23 56 -46 93 -46 35 0 50 19 75 95 22 68 32 83 46 69 8 -8 7 -28 -4 -72 -9 -33 -16 -71 -16 -85 0 -31 36 -77 61 -77 20 0 29 15 51 90 10 34 18 45 33 45 26 0 23 -30 -11 -104 -45 -99 -22 -173 57 -186 33 -6 38 -4 57 27 11 18 37 49 56 67 20 19 36 42 36 51 0 9 11 27 25 40 15 14 25 34 25 52 0 36 24 84 49 97 44 24 41 -23 -4 -76 -23 -27 -33 -47 -29 -58 5 -11 -8 -29 -40 -59 -25 -24 -46 -49 -46 -57 0 -7 -18 -43 -40 -80 -22 -37 -40 -79 -40 -93 0 -30 -97 -221 -143 -283 -49 -65 -76 -74 -211 -70 l-115 4 -109 109 c-113 113 -132 138 -132 173 0 28 105 127 150 142 19 7 45 19 57 27 13 8 29 12 37 9 22 -9 46 -62 56 -123 17 -105 58 -152 108 -125 11 6 36 32 55 58 20 27 45 56 56 65 27 23 27 49 -1 76 -29 26 -70 42 -112 42 -39 0 -159 74 -175 108 -16 33 -14 275 2 291 10 10 16 7 30 -11 15 -18 18 -32 13 -69z"
       id="path8" />
    <path
       d="M196 934 c-9 -8 -16 -31 -16 -51 0 -29 8 -43 43 -77 64 -61 138 -116 156 -116 44 0 54 56 21 120 -56 109 -157 171 -204 124z m117 -52 c42 -41 87 -115 87 -143 0 -30 -20 -33 -48 -7 -15 13 -48 40 -74 59 -61 44 -85 87 -68 118 16 31 53 21 103 -27z"
       id="path10" />
    <path
       style="fill:#ffffff;stroke:#000000;stroke-width:7.5px;stroke-linecap:butt;stroke-linejoin:miter;stroke-opacity:1"
       d="m 767.92223,1366.9016 16.31835,-16.3184 c 0,0 10.55895,-64.3135 13.43864,-96.9501 2.87971,-32.6367 -1.91977,-32.6367 -1.91977,-32.6367 0,0 -9.59902,-67.1932 -12.4788,-80.6319 -2.8797,-13.4386 -14.3985,-22.0777 -30.71685,-30.7169 -16.31836,-8.6391 -24.95748,26.8773 -24.95748,26.8773 0,0 -9.59903,209.2588 18.23815,230.3767 z"
       id="path177" />
    <path
       style="fill:#ffffff;stroke:#000000;stroke-width:7.5px;stroke-linecap:butt;stroke-linejoin:miter;stroke-opacity:1;image-rendering:auto"
       d="m 1094.2977,1363.1809 10.2967,-20.6533 c 0,0 -10.3951,-64.3401 -18.0208,-96.2037 -7.6257,-31.8637 -12.177,-30.3408 -12.177,-30.3408 0,0 -30.4251,-60.6744 -37.4205,-72.5048 -6.9953,-11.8302 -20.6601,-16.3676 -38.87655,-19.382 -18.2164,-3.0144 -15.13883,33.4078 -15.13883,33.4078 0,0 57.30068,201.4897 90.40038,212.6827 z"
       id="path177-7" />
    <path
       style="fill:#ffffff;stroke:#000000;stroke-width:7.5px;stroke-linecap:butt;stroke-linejoin:miter;stroke-opacity:1"
       d="m 1214.2905,1246.0532 c -40.8907,4.7474 -46.1954,-24.4749 -45.4765,-25.114 0,0 -18.3264,-43.4402 -5.43,-62.4453 12.8963,-19.0051 31.7432,-34.6801 40.7252,-27.8289 11.4565,8.7386 32.765,52.2493 31.2227,65.1604 -5.0453,42.2346 -2.4458,36.5132 -21.0414,50.2278 z"
       id="path347"
       sodipodi:nodetypes="ccsssc" />
    <path
       style="fill:#ffffff;stroke:#000000;stroke-width:5.80768px;stroke-linecap:butt;stroke-linejoin:miter;stroke-opacity:1"
       d="m 1182.3026,1080.5079 c -23.3934,8.7451 -31.3731,-19.546 -31.0538,-20.2477 0,0 -18.0362,-41.0184 -13.5596,-61.0423 4.4765,-20.02383 13.0238,-37.35494 19.4705,-31.49102 8.2229,7.47931 28.0341,48.27102 29.2617,61.15682 4.0158,42.152 4.6047,36.2514 -4.1188,51.6242 z"
       id="path347-2"
       sodipodi:nodetypes="ccsssc" />
  </g>
</svg>
