<?xml version="1.0" encoding="UTF-8" standalone="no"?>
<svg
   version="1.0"
   width="174.000000pt"
   height="158.000000pt"
   viewBox="0 0 174.000000 158.000000"
   preserveAspectRatio="xMidYMid meet"
   id="svg14"
   sodipodi:docname="mosaico.svg"
   inkscape:version="1.1.2 (b8e25be833, 2022-02-05)"
   xmlns:inkscape="http://www.inkscape.org/namespaces/inkscape"
   xmlns:sodipodi="http://sodipodi.sourceforge.net/DTD/sodipodi-0.dtd"
   xmlns="http://www.w3.org/2000/svg"
   xmlns:svg="http://www.w3.org/2000/svg">
  <defs
     id="defs18">
    <marker
       style="overflow:visible;"
       id="Arrow1Lend"
       refX="0.0"
       refY="0.0"
       orient="auto"
       inkscape:stockid="Arrow1Lend"
       inkscape:isstock="true">
      <path
         transform="scale(0.8) rotate(180) translate(12.5,0)"
         style="fill-rule:evenodd;fill:context-stroke;stroke:context-stroke;stroke-width:1.0pt;"
         d="M 0.0,0.0 L 5.0,-5.0 L -12.5,0.0 L 5.0,5.0 L 0.0,0.0 z "
         id="path4144" />
    </marker>
    <marker
       style="overflow:visible"
       id="Arrow1Lstart"
       refX="0.0"
       refY="0.0"
       orient="auto"
       inkscape:stockid="Arrow1Lstart"
       inkscape:isstock="true">
      <path
         transform="scale(0.8) translate(12.5,0)"
         style="fill-rule:evenodd;fill:context-stroke;stroke:context-stroke;stroke-width:1.0pt"
         d="M 0.0,0.0 L 5.0,-5.0 L -12.5,0.0 L 5.0,5.0 L 0.0,0.0 z "
         id="path4141" />
    </marker>
  </defs>
  <sodipodi:namedview
     id="namedview16"
     pagecolor="#ffffff"
     bordercolor="#999999"
     borderopacity="1"
     inkscape:pageshadow="0"
     inkscape:pageopacity="0"
     inkscape:pagecheckerboard="0"
     inkscape:document-units="pt"
     showgrid="false"
     inkscape:zoom="1.3812078"
     inkscape:cx="69.866388"
     inkscape:cy="4.3440241"
     inkscape:window-width="1920"
     inkscape:window-height="1009"
     inkscape:window-x="-8"
     inkscape:window-y="-8"
     inkscape:window-maximized="1"
     inkscape:current-layer="g12" />
  <metadata
     id="metadata2">
Created by potrace 1.16, written by Peter Selinger 2001-2019
</metadata>
  <g
     inkscape:groupmode="layer"
     id="layer1"
     inkscape:label="Layer 1"
     style="opacity:0.36820084">
    <g
       transform="matrix(0.1,0,0,-0.1,5.0787951,159.39774)"
       fill="#000000"
       stroke="none"
       id="g12">
      <path
         d="m 705.95183,1518.5478 c -24.09492,-16.8664 -26.50441,-28.9139 -25.29966,-142.1599 0,-145.7743 18.07118,-204.8068 60.23728,-198.7831 44.57558,6.0238 69.87524,74.6943 73.48948,199.9878 2.40949,91.5607 -1.20475,112.0413 -20.48068,133.7268 -27.70914,30.1186 -53.0088,32.5281 -87.94642,7.2284 z"
         id="path4"
         style="stroke-width:1.20475" />
      <path
         d="m 1070.9897,1510.1146 c -9.6379,-15.6617 -21.6854,-54.2135 -26.5044,-87.9464 -4.8189,-32.5281 -15.6617,-77.1037 -24.0949,-98.7892 -20.48065,-46.985 -21.6854,-107.2223 -3.6142,-118.065 26.5044,-16.8665 68.6705,7.2285 91.5607,50.5993 12.0474,25.2996 37.3471,72.2847 56.623,103.6081 36.1424,60.2373 38.5519,121.6793 6.0238,160.2312 -21.6854,26.5044 -79.5133,20.4807 -99.994,-9.638 z"
         id="path6"
         style="stroke-width:1.20475" />
      <path
         d="m 1239.6542,1353.4977 c -9.638,-15.6617 -21.6855,-46.9851 -25.2997,-72.2848 -7.2285,-34.9376 -3.6142,-48.1898 15.6617,-67.4657 20.4807,-20.4807 21.6854,-25.2997 7.2285,-31.3234 -22.8902,-8.4332 -53.0088,-80.7179 -53.0088,-126.4983 0,-25.2996 -7.2285,-38.5518 -24.0949,-43.3708 -16.8665,-4.819 -30.1187,-28.91387 -43.3709,-75.89897 -25.2997,-87.94642 -33.7329,-96.37963 -60.2373,-57.82778 -19.2759,30.11868 -19.2759,37.34708 0,103.60808 24.0949,87.94647 24.0949,125.29357 1.2047,144.56947 -33.7328,27.7092 -59.0325,8.4332 -87.94639,-66.261 -48.18982,-126.49827 -48.18982,-126.49827 -80.71795,-126.49827 -63.85152,0 -78.30847,18.0712 -78.30847,99.99387 0,91.5607 -22.89016,132.522 -69.87524,126.4983 -51.80406,-6.0237 -62.64677,-44.5756 -59.03254,-221.67317 2.4095,-122.88405 7.22848,-163.8454 22.89017,-187.94031 33.73288,-50.59931 163.8454,-130.11252 225.28742,-137.34099 72.2847,-8.43322 120.4746,-27.70915 132.522,-51.80406 8.4332,-14.45695 -9.6379,-40.96135 -72.28472,-109.63185 l -83.12744,-90.35592 -24.09491,27.70915 c -22.89017,28.91389 -38.55186,74.69422 -53.00881,160.23116 -10.84271,62.64677 -55.4183,124.08879 -93.97015,128.90778 -16.86644,2.40949 -49.39457,-7.22848 -71.07999,-20.48068 -22.89017,-14.45694 -50.59932,-25.29966 -61.44203,-25.29966 -10.84271,0 -55.4183,-31.32338 -98.78914,-69.87524 -56.62304,-49.39457 -81.9227,-79.51321 -86.74168,-107.22236 -10.84271,-59.03253 32.52813,-138.54574 104.81287,-191.55454 32.52813,-24.09492 75.89897,-67.46576 96.37964,-97.5844 62.64677,-90.355923 89.15118,-99.993883 269.86302,-99.993883 219.26374,0 232.51594,9.63796 366.24274,267.453523 40.9613,78.30846 73.4894,155.41218 73.4894,173.48336 0,16.86644 10.8428,46.98508 24.095,65.05627 13.2522,19.27593 36.1423,60.23727 51.804,92.76541 14.457,33.73287 50.5993,81.9227 78.3085,108.4271 34.9376,32.52813 50.5993,57.82779 50.5993,80.71795 0,16.86644 16.8664,54.21359 36.1424,81.92269 42.1661,57.8278 46.985,110.83657 12.0474,130.11247 -50.5993,26.5044 -132.522,-55.4183 -132.522,-132.52197 0,-14.4569 -13.2522,-42.16607 -30.1186,-62.64675 -16.8665,-19.27593 -30.1187,-45.78033 -30.1187,-59.03253 0,-12.04746 -6.0237,-22.89017 -12.0474,-22.89017 -7.2285,0 -34.9377,-30.11864 -63.8515,-66.26101 -27.7092,-36.14236 -60.2373,-66.261 -71.08,-66.261 -60.2373,0 -92.7654,106.01761 -50.5994,166.25489 20.4807,30.11864 55.4183,139.75047 50.5994,162.64067 -1.2048,7.2285 7.2284,28.91387 18.0711,46.98507 15.6617,21.6854 20.4807,49.3945 18.0712,90.3559 -3.6142,49.3945 1.2048,61.442 26.5044,83.1274 25.2997,21.6854 28.9139,37.3471 30.1187,96.3797 v 71.08 l -38.5519,3.6142 c -28.9139,2.4095 -42.1661,-2.4095 -56.623,-24.0949 z M 781.8508,1029.4211 c -4.81898,-31.32337 -3.61424,-65.05617 0,-75.89887 10.84271,-27.7092 67.46575,-55.4183 112.04134,-55.4183 42.16609,0 60.23728,22.8901 90.35592,114.45077 26.50444,81.9227 38.55184,99.9939 55.41834,83.1274 9.6379,-9.6379 8.4332,-33.7328 -4.819,-86.7417 -10.8427,-39.75657 -19.276,-85.53687 -19.276,-102.40327 0,-37.34714 43.3709,-92.76544 73.4895,-92.76544 24.0949,0 34.9376,18.07119 61.4421,108.42714 12.0475,40.9613 21.6854,54.2135 39.7566,54.2135 31.3234,0 27.7091,-36.1424 -13.2522,-125.29352 -54.2136,-119.26982 -26.5044,-208.42099 68.6705,-224.08268 39.7566,-7.22848 45.7803,-4.81899 68.6705,32.52813 13.2522,21.68542 44.5756,59.03253 67.4657,80.71795 24.095,22.89017 43.3709,50.59932 43.3709,61.44203 0,10.84271 13.2522,32.52813 30.1186,48.18982 18.0712,16.86644 30.1187,40.96135 30.1187,62.64677 0,43.3708 28.9139,101.19857 59.0325,116.86027 53.0088,28.9139 49.3946,-27.7091 -4.819,-91.56057 -27.7091,-32.5282 -39.7566,-56.62308 -34.9376,-69.87529 6.0237,-13.2522 -9.638,-34.93762 -48.1898,-71.07999 -30.1187,-28.91389 -55.4183,-59.03253 -55.4183,-68.67049 0,-8.43322 -21.6854,-51.80406 -48.1898,-96.37965 -26.5044,-44.57559 -48.1899,-95.1749 -48.1899,-112.04134 0,-36.14237 -116.8603,-266.24877 -172.2786,-340.943 -59.0326,-78.30846 -91.5607,-89.151173 -254.20136,-84.332193 L 739.6847,99.357557 608.36743,230.67483 C 472.23118,366.81108 449.34102,396.92972 449.34102,439.09582 c 0,33.73287 126.49828,153.00269 180.71183,171.07387 22.89017,8.43322 54.21356,22.89016 68.6705,32.52813 15.6617,9.63796 34.93762,14.45695 44.57559,10.84271 26.5044,-10.84271 55.4183,-74.69423 67.46575,-148.18371 20.48068,-126.49828 69.87525,-183.12133 130.11253,-150.5932 13.2522,7.22848 43.37084,38.55186 66.26098,69.87525 24.0949,32.52813 54.2136,67.46575 67.4658,78.30846 32.5281,27.70915 32.5281,59.03254 -1.2048,91.56067 -34.9376,31.32338 -84.33216,50.59931 -134.93148,50.59931 -46.98507,0 -191.55454,89.15117 -210.83047,130.11252 -19.27593,39.75661 -16.86644,331.30497 2.40949,350.58097 12.04745,12.0474 19.27593,8.4332 36.14237,-13.2522 18.07118,-21.6855 21.68542,-38.5519 15.66169,-83.1275 z"
         id="path8"
         style="stroke-width:1.20475" />
      <path
         d="m 71.050907,987.25503 c -10.84271,-9.6379 -19.275929,-37.3471 -19.275929,-61.442 0,-34.93762 9.637964,-51.80406 51.804062,-92.76541 77.10371,-73.48948 166.25488,-139.75049 187.9403,-139.75049 53.00881,0 65.05627,67.46576 25.29966,144.56947 -67.46575,131.31723 -189.14505,206.0115 -245.768093,149.38843 z m 150.206743,-53.3952 c 50.59931,-49.39461 107.12574,-150.11017 107.12574,-183.84304 0,-36.14237 -49.53656,-46.69523 -83.26944,-15.37185 -18.07118,15.66169 -60.14066,48.18983 -91.46405,71.07999 -73.489478,53.00881 -86.21323,114.0644 -65.732555,151.4115 19.275925,37.3471 73.103025,34.5512 133.340305,-23.2766 z"
         id="path10"
         style="fill:#000000;fill-opacity:1;stroke:none;stroke-width:0;stroke-miterlimit:4;stroke-dasharray:none;stroke-opacity:1;paint-order:markers stroke fill"
         sodipodi:nodetypes="cscscccscccc" />
      <path
         style="fill:#ffffff;stroke:#000000;stroke-width:9.03559px;stroke-linecap:butt;stroke-linejoin:miter;stroke-opacity:1"
         d="m 760.07168,1508.7913 19.65946,-19.6595 c 0,0 12.72085,-77.4814 16.19015,-116.8002 3.46931,-39.3189 -2.31284,-39.3189 -2.31284,-39.3189 0,0 -11.56437,-80.9507 -15.03378,-97.141 -3.4693,-16.19 -17.34653,-26.598 -37.00599,-37.006 -19.65947,-10.4079 -30.06741,32.3803 -30.06741,32.3803 0,0 -11.56439,252.1036 21.97233,277.5453 z"
         id="path177" />
      <path
         style="fill:#ffffff;stroke:#000000;stroke-width:9.03559px;stroke-linecap:butt;stroke-linejoin:miter;stroke-opacity:1;image-rendering:auto"
         d="m 1153.2711,1504.3088 12.4049,-24.882 c 0,0 -12.5234,-77.5134 -21.7104,-115.9009 -9.1871,-38.3877 -14.6703,-36.553 -14.6703,-36.553 0,0 -36.6545,-73.0972 -45.0821,-87.3498 -8.4276,-14.2524 -24.8902,-19.7188 -46.8364,-23.3504 -21.9461,-3.6316 -18.2384,40.2479 -18.2384,40.2479 0,0 69.0327,242.7438 108.9094,256.2285 z"
         id="path177-7" />
      <path
         style="fill:#ffffff;stroke:#000000;stroke-width:9.03559px;stroke-linecap:butt;stroke-linejoin:miter;stroke-opacity:1"
         d="m 1297.8319,1363.1997 c -49.2629,5.7195 -55.6537,-29.486 -54.7876,-30.2559 0,0 -22.0786,-52.3344 -6.5417,-75.2307 15.5367,-22.8963 38.2424,-41.7807 49.0635,-33.5268 13.8021,10.5278 39.4734,62.9471 37.6154,78.5017 -6.0783,50.882 -2.9466,43.9891 -25.3496,60.5117 z"
         id="path347"
         sodipodi:nodetypes="ccsssc" />
      <path
         style="fill:#ffffff;stroke:#000000;stroke-width:6.99678px;stroke-linecap:butt;stroke-linejoin:miter;stroke-opacity:1"
         d="m 1259.2947,1163.7598 c -28.1831,10.5356 -37.7966,-23.548 -37.412,-24.3934 0,0 -21.729,-49.4167 -16.3358,-73.5404 5.393,-24.1236 15.6903,-45.0032 23.457,-37.9387 9.9065,9.0107 33.7739,58.1543 35.2529,73.6784 4.838,50.7825 5.5475,43.6738 -4.9621,62.1941 z"
         id="path347-2"
         sodipodi:nodetypes="ccsssc" />
    </g>
  </g>
</svg>
